# xmcd
#
# Track frame offsets:
#	182
#	10747
#	24287
#	36130
#	48772
#	64652
#	77132
#	91602
#	108472
#	120152
#	130202
#	141432
#	152785
#	165522
#	176777
#	195637
#	206275
#	215895
#	226100
#	239242
#	254755
#	263915
#	277895
#	288002
#
# Disc length: 4018
#
# Revision: 1
# Processed by: cddbd v1.5.1PL0 Copyright (c) Steve Scherf et al.
# Submitted via: CDex 1.51
# Normalized: r0:DSETVAR1,TDELIM( - )
#
DISCID=4a0fb018
DTITLE=Various Artist - Onvergetelijke Country Hits CD4
DYEAR=1988
DGENRE=Country
TTITLE0=Sckeeter Davis - I'm A Lover
TTITLE1=Eddy Arnold - The Tip Of My Fingers
TTITLE2=Wanda Jackson - In The Middle Of A Heartache
TTITLE3=Don Williams - Some Broken Hearts Never Mend
TTITLE4=Dolly Parton - Release Me
TTITLE5=Jim Reeves - A Letter To My Heart
TTITLE6=Johnny Cash - I Still Miss Someone
TTITLE7=Jeanny Seely - It's Only Love
TTITLE8=Sonny |James - The Minute You're Gone
TTITLE9=Don Gibson - Funny, Familiar, Forgotten Feelings
TTITLE10=Linda Ronstadt - Will You Love Me Tomorrow
TTITLE11=Charley Pride - Help Me Make It Through The Night
TTITLE12=Loretta Lynn - Behind Closed Doors
TTITLE13=Tom T. Hall - P.S. I Love You
TTITLE14=Willie Nelson - Until It's Time For You To Go
TTITLE15=Loretta Lynn/Conway Twitty - Never Ending Song Of Love
TTITLE16=Bobbie Gentry - Son Of A Preacher Man
TTITLE17=Charlie Rich - I Don't See Me In Your Eyes Anymore
TTITLE18=Brenda Lee - Someone Loves You Honey
TTITLE19=Larry Gatlin - Sure Feels Like Love
TTITLE20=Tennessee E. Ford - It's All In The Game
TTITLE21=Marty Robbins - Love Me Tender
TTITLE22=Jim Reeves - A Fool Such As I
TTITLE23=Janie Fricke - Whan I Fall In Love
EXTD=YEAR: 1988
EXTT0=
EXTT1=
EXTT2=
EXTT3=
EXTT4=
EXTT5=
EXTT6=
EXTT7=
EXTT8=
EXTT9=
EXTT10=
EXTT11=
EXTT12=
EXTT13=
EXTT14=
EXTT15=
EXTT16=
EXTT17=
EXTT18=
EXTT19=
EXTT20=
EXTT21=
EXTT22=
EXTT23=
PLAYORDER=
